<?xml version="1.0" encoding="UTF-8"?>
<!DOCTYPE svg PUBLIC "-//W3C//DTD SVG 1.1//EN" "http://www.w3.org/Graphics/SVG/1.1/DTD/svg11.dtd">
<svg xmlns="http://www.w3.org/2000/svg" version="1.1" width="1253px" height="724px" style="shape-rendering:geometricPrecision; text-rendering:geometricPrecision; image-rendering:optimizeQuality; fill-rule:evenodd; clip-rule:evenodd" xmlns:xlink="http://www.w3.org/1999/xlink">
<g><path style="opacity:1" fill="#fefefe" d="M -0.5,-0.5 C 417.167,-0.5 834.833,-0.5 1252.5,-0.5C 1252.5,240.833 1252.5,482.167 1252.5,723.5C 834.833,723.5 417.167,723.5 -0.5,723.5C -0.5,482.167 -0.5,240.833 -0.5,-0.5 Z"/></g>
<g><path style="opacity:1" fill="#00a1e8" d="M 291.5,23.5 C 293.39,23.2965 294.89,23.9632 296,25.5C 298.781,30.948 302.781,34.948 308,37.5C 308.978,43.1954 306.811,45.1954 301.5,43.5C 295.709,45.5969 289.876,47.5969 284,49.5C 281.5,48.6667 281,47.1667 282.5,45C 286.833,43.3333 291.167,41.6667 295.5,40C 253.082,24.728 229.249,39.5613 224,84.5C 223.667,95.5 223.333,106.5 223,117.5C 221.951,118.517 220.784,118.684 219.5,118C 216.862,97.7789 218.695,77.9455 225,58.5C 233.908,36.7939 250.074,26.9605 273.5,29C 280.797,29.7586 287.797,31.5919 294.5,34.5C 294.833,34.1667 295.167,33.8333 295.5,33.5C 293.455,31.2412 291.789,28.7412 290.5,26C 290.743,25.0979 291.077,24.2646 291.5,23.5 Z"/></g>
<g><path style="opacity:1" fill="#23161c" d="M 136.5,51.5 C 140.383,51.1091 144.05,51.7758 147.5,53.5C 149.903,60.1019 147.57,63.4352 140.5,63.5C 140.5,65.5 140.5,67.5 140.5,69.5C 139.167,69.5 137.833,69.5 136.5,69.5C 136.5,63.5 136.5,57.5 136.5,51.5 Z"/></g>
<g><path style="opacity:1" fill="#22151c" d="M 156.5,51.5 C 165.705,51.2063 169.205,55.5396 167,64.5C 164.337,68.7254 160.504,70.2254 155.5,69C 150.845,66.1034 149.345,61.9367 151,56.5C 152.704,54.6266 154.537,52.9599 156.5,51.5 Z"/></g>
<g><path style="opacity:1" fill="#23161c" d="M 170.5,51.5 C 174.383,51.1091 178.05,51.7758 181.5,53.5C 183.903,60.1019 181.57,63.4352 174.5,63.5C 174.5,65.5 174.5,67.5 174.5,69.5C 173.167,69.5 171.833,69.5 170.5,69.5C 170.5,63.5 170.5,57.5 170.5,51.5 Z"/></g>
<g><path style="opacity:1" fill="#fef9ee" d="M 140.5,54.5 C 141.833,54.5 143.167,54.5 144.5,54.5C 145.401,58.2407 144.068,60.2407 140.5,60.5C 140.5,58.5 140.5,56.5 140.5,54.5 Z"/></g>
<g><path style="opacity:1" fill="#f3f6f2" d="M 156.5,54.5 C 159.044,54.1043 161.211,54.771 163,56.5C 164.004,59.9926 163.504,63.1592 161.5,66C 158.975,66.8959 156.808,66.3959 155,64.5C 154.037,60.8513 154.537,57.518 156.5,54.5 Z"/></g>
<g><path style="opacity:1" fill="#fef9ee" d="M 174.5,54.5 C 175.833,54.5 177.167,54.5 178.5,54.5C 179.401,58.2407 178.068,60.2407 174.5,60.5C 174.5,58.5 174.5,56.5 174.5,54.5 Z"/></g>
<g><path style="opacity:1" fill="#000000" d="M 166.5,122.5 C 168.167,122.5 169.833,122.5 171.5,122.5C 171.5,234.5 171.5,346.5 171.5,458.5C 202.5,458.5 233.5,458.5 264.5,458.5C 264.5,346.5 264.5,234.5 264.5,122.5C 266.167,122.5 267.833,122.5 269.5,122.5C 269.5,236.167 269.5,349.833 269.5,463.5C 235.167,463.5 200.833,463.5 166.5,463.5C 166.5,349.833 166.5,236.167 166.5,122.5 Z"/></g>
<g><path style="opacity:1" fill="#b4e61c" d="M 175.5,128.5 C 204.5,128.5 233.5,128.5 262.5,128.5C 262.5,145.833 262.5,163.167 262.5,180.5C 233.5,180.5 204.5,180.5 175.5,180.5C 175.5,163.167 175.5,145.833 175.5,128.5 Z"/></g>
<g><path style="opacity:1" fill="#b4e61c" d="M 175.5,183.5 C 204.5,183.5 233.5,183.5 262.5,183.5C 262.5,200.833 262.5,218.167 262.5,235.5C 233.5,235.5 204.5,235.5 175.5,235.5C 175.5,218.167 175.5,200.833 175.5,183.5 Z"/></g>
<g><path style="opacity:1" fill="#b4e61c" d="M 174.5,238.5 C 203.5,238.5 232.5,238.5 261.5,238.5C 261.5,255.833 261.5,273.167 261.5,290.5C 232.5,290.5 203.5,290.5 174.5,290.5C 174.5,273.167 174.5,255.833 174.5,238.5 Z"/></g>
<g><path style="opacity:1" fill="#000000" d="M 586.5,319.5 C 584.833,319.5 583.167,319.5 581.5,319.5C 581.5,309.5 581.5,299.5 581.5,289.5C 559.5,289.5 537.5,289.5 515.5,289.5C 490.167,289.5 464.833,289.5 439.5,289.5C 439.5,310.167 439.5,330.833 439.5,351.5C 464.833,351.5 490.167,351.5 515.5,351.5C 537.5,351.5 559.5,351.5 581.5,351.5C 581.5,342.5 581.5,333.5 581.5,324.5C 583.167,324.5 584.833,324.5 586.5,324.5C 586.5,335.167 586.5,345.833 586.5,356.5C 536.167,356.5 485.833,356.5 435.5,356.5C 435.5,347.167 435.5,337.833 435.5,328.5C 435.5,327.5 435.5,326.5 435.5,325.5C 435.5,311.833 435.5,298.167 435.5,284.5C 485.833,284.5 536.167,284.5 586.5,284.5C 586.5,296.167 586.5,307.833 586.5,319.5 Z"/></g>
<g><path style="opacity:1" fill="#000000" d="M 780.5,319.5 C 778.833,319.5 777.167,319.5 775.5,319.5C 775.5,309.5 775.5,299.5 775.5,289.5C 753.5,289.5 731.5,289.5 709.5,289.5C 684.167,289.5 658.833,289.5 633.5,289.5C 633.5,310.167 633.5,330.833 633.5,351.5C 658.833,351.5 684.167,351.5 709.5,351.5C 731.5,351.5 753.5,351.5 775.5,351.5C 775.5,342.5 775.5,333.5 775.5,324.5C 777.167,324.5 778.833,324.5 780.5,324.5C 780.5,335.167 780.5,345.833 780.5,356.5C 730.167,356.5 679.833,356.5 629.5,356.5C 629.5,332.5 629.5,308.5 629.5,284.5C 679.833,284.5 730.167,284.5 780.5,284.5C 780.5,296.167 780.5,307.833 780.5,319.5 Z"/></g>
<g><path style="opacity:1" fill="#000000" d="M 974.5,319.5 C 972.833,319.5 971.167,319.5 969.5,319.5C 969.5,309.5 969.5,299.5 969.5,289.5C 947.5,289.5 925.5,289.5 903.5,289.5C 878.167,289.5 852.833,289.5 827.5,289.5C 827.5,310.167 827.5,330.833 827.5,351.5C 852.833,351.5 878.167,351.5 903.5,351.5C 925.5,351.5 947.5,351.5 969.5,351.5C 969.5,342.5 969.5,333.5 969.5,324.5C 971.167,324.5 972.833,324.5 974.5,324.5C 974.5,335.167 974.5,345.833 974.5,356.5C 924.167,356.5 873.833,356.5 823.5,356.5C 823.5,332.5 823.5,308.5 823.5,284.5C 873.833,284.5 924.167,284.5 974.5,284.5C 974.5,296.167 974.5,307.833 974.5,319.5 Z"/></g>
<g><path style="opacity:1" fill="#fec90d" d="M 515.5,289.5 C 515.5,310.167 515.5,330.833 515.5,351.5C 490.167,351.5 464.833,351.5 439.5,351.5C 439.5,330.833 439.5,310.167 439.5,289.5C 464.833,289.5 490.167,289.5 515.5,289.5 Z"/></g>
<g><path style="opacity:1" fill="#7e7f7e" d="M 515.5,289.5 C 537.5,289.5 559.5,289.5 581.5,289.5C 581.5,299.5 581.5,309.5 581.5,319.5C 573.14,319.831 564.807,319.498 556.5,318.5C 550.728,310.979 544.561,310.646 538,317.5C 535.102,325.95 538.102,330.95 547,332.5C 551.863,331.979 555.363,329.479 557.5,325C 565.493,324.5 573.493,324.334 581.5,324.5C 581.5,333.5 581.5,342.5 581.5,351.5C 559.5,351.5 537.5,351.5 515.5,351.5C 515.5,330.833 515.5,310.167 515.5,289.5 Z"/></g>
<g><path style="opacity:1" fill="#fec90d" d="M 709.5,289.5 C 709.5,310.167 709.5,330.833 709.5,351.5C 684.167,351.5 658.833,351.5 633.5,351.5C 633.5,330.833 633.5,310.167 633.5,289.5C 658.833,289.5 684.167,289.5 709.5,289.5 Z"/></g>
<g><path style="opacity:1" fill="#7e7f7e" d="M 709.5,289.5 C 731.5,289.5 753.5,289.5 775.5,289.5C 775.5,299.5 775.5,309.5 775.5,319.5C 767.14,319.831 758.807,319.498 750.5,318.5C 744.728,310.979 738.561,310.646 732,317.5C 729.102,325.95 732.102,330.95 741,332.5C 745.863,331.979 749.363,329.479 751.5,325C 759.493,324.5 767.493,324.334 775.5,324.5C 775.5,333.5 775.5,342.5 775.5,351.5C 753.5,351.5 731.5,351.5 709.5,351.5C 709.5,330.833 709.5,310.167 709.5,289.5 Z"/></g>
<g><path style="opacity:1" fill="#fec90d" d="M 903.5,289.5 C 903.5,310.167 903.5,330.833 903.5,351.5C 878.167,351.5 852.833,351.5 827.5,351.5C 827.5,330.833 827.5,310.167 827.5,289.5C 852.833,289.5 878.167,289.5 903.5,289.5 Z"/></g>
<g><path style="opacity:1" fill="#7e7f7e" d="M 903.5,289.5 C 925.5,289.5 947.5,289.5 969.5,289.5C 969.5,299.5 969.5,309.5 969.5,319.5C 961.14,319.831 952.807,319.498 944.5,318.5C 938.728,310.979 932.561,310.646 926,317.5C 923.102,325.95 926.102,330.95 935,332.5C 939.863,331.979 943.363,329.479 945.5,325C 953.493,324.5 961.493,324.334 969.5,324.5C 969.5,333.5 969.5,342.5 969.5,351.5C 947.5,351.5 925.5,351.5 903.5,351.5C 903.5,330.833 903.5,310.167 903.5,289.5 Z"/></g>
<g><path style="opacity:1" fill="#b4e61c" d="M 174.5,293.5 C 203.5,293.5 232.5,293.5 261.5,293.5C 261.5,310.833 261.5,328.167 261.5,345.5C 232.5,345.5 203.5,345.5 174.5,345.5C 174.5,328.167 174.5,310.833 174.5,293.5 Z"/></g>
<g><path style="opacity:1" fill="#00a1e8" d="M 586.5,324.5 C 584.833,324.5 583.167,324.5 581.5,324.5C 573.493,324.334 565.493,324.5 557.5,325C 555.363,329.479 551.863,331.979 547,332.5C 538.102,330.95 535.102,325.95 538,317.5C 544.561,310.646 550.728,310.979 556.5,318.5C 564.807,319.498 573.14,319.831 581.5,319.5C 583.167,319.5 584.833,319.5 586.5,319.5C 596.839,319.666 607.172,319.5 617.5,319C 615.667,317.833 613.833,316.667 612,315.5C 611.146,313.393 611.812,312.059 614,311.5C 619.883,313.678 624.716,317.178 628.5,322C 624.382,326.654 619.549,330.487 614,333.5C 611.812,332.941 611.146,331.607 612,329.5C 613.925,328.12 615.759,326.62 617.5,325C 607.172,324.5 596.839,324.334 586.5,324.5 Z"/></g>
<g><path style="opacity:1" fill="#00a1e8" d="M 780.5,324.5 C 778.833,324.5 777.167,324.5 775.5,324.5C 767.493,324.334 759.493,324.5 751.5,325C 749.363,329.479 745.863,331.979 741,332.5C 732.102,330.95 729.102,325.95 732,317.5C 738.561,310.646 744.728,310.979 750.5,318.5C 758.807,319.498 767.14,319.831 775.5,319.5C 777.167,319.5 778.833,319.5 780.5,319.5C 790.839,319.666 801.172,319.5 811.5,319C 809.667,317.833 807.833,316.667 806,315.5C 805.146,313.393 805.812,312.059 808,311.5C 811.898,313.533 815.732,315.7 819.5,318C 821.648,320.075 821.982,322.408 820.5,325C 816.323,327.848 812.156,330.682 808,333.5C 805.812,332.941 805.146,331.607 806,329.5C 807.925,328.12 809.759,326.62 811.5,325C 801.172,324.5 790.839,324.334 780.5,324.5 Z"/></g>
<g><path style="opacity:1" fill="#00a1e8" d="M 974.5,324.5 C 972.833,324.5 971.167,324.5 969.5,324.5C 961.493,324.334 953.493,324.5 945.5,325C 943.363,329.479 939.863,331.979 935,332.5C 926.102,330.95 923.102,325.95 926,317.5C 932.561,310.646 938.728,310.979 944.5,318.5C 952.807,319.498 961.14,319.831 969.5,319.5C 971.167,319.5 972.833,319.5 974.5,319.5C 984.839,319.666 995.172,319.5 1005.5,319C 1003.67,317.833 1001.83,316.667 1000,315.5C 999.146,313.393 999.812,312.059 1002,311.5C 1005.9,313.533 1009.73,315.7 1013.5,318C 1015.65,320.075 1015.98,322.408 1014.5,325C 1010.32,327.848 1006.16,330.682 1002,333.5C 999.812,332.941 999.146,331.607 1000,329.5C 1001.93,328.12 1003.76,326.62 1005.5,325C 995.172,324.5 984.839,324.334 974.5,324.5 Z"/></g>
<g><path style="opacity:1" fill="#00a1e8" d="M 435.5,325.5 C 435.5,326.5 435.5,327.5 435.5,328.5C 431.098,332.122 426.264,335.122 421,337.5C 418.812,336.941 418.146,335.607 419,333.5C 420.833,332.333 422.667,331.167 424.5,330C 412.167,329.667 399.833,329.333 387.5,329C 386.167,327.667 386.167,326.333 387.5,325C 400.833,324.667 414.167,324.333 427.5,324C 424.751,322.877 422.251,321.377 420,319.5C 419.146,317.393 419.812,316.059 422,315.5C 427.683,317.556 432.183,320.889 435.5,325.5 Z"/></g>
<g><path style="opacity:1" fill="#260f1f" d="M 1027.5,315.5 C 1029.17,315.5 1030.83,315.5 1032.5,315.5C 1034.06,320.245 1035.9,324.912 1038,329.5C 1038.5,324.845 1038.67,320.179 1038.5,315.5C 1039.5,315.5 1040.5,315.5 1041.5,315.5C 1041.5,321.5 1041.5,327.5 1041.5,333.5C 1039.61,333.703 1038.11,333.037 1037,331.5C 1035.25,327.673 1033.25,324.007 1031,320.5C 1030.5,324.821 1030.33,329.154 1030.5,333.5C 1029.5,333.5 1028.5,333.5 1027.5,333.5C 1027.5,327.5 1027.5,321.5 1027.5,315.5 Z"/></g>
<g><path style="opacity:1" fill="#1e1212" d="M 378.5,316.5 C 379.5,316.5 380.5,316.5 381.5,316.5C 381.83,322.868 381.496,329.202 380.5,335.5C 379.808,334.975 379.308,334.308 379,333.5C 373.786,336.908 370.619,335.575 369.5,329.5C 369.681,323.971 372.347,321.971 377.5,323.5C 378.474,321.257 378.808,318.924 378.5,316.5 Z"/></g>
<g><path style="opacity:1" fill="#2b1921" d="M 324.5,317.5 C 325.833,317.5 327.167,317.5 328.5,317.5C 328.5,319.833 328.5,322.167 328.5,324.5C 330.5,324.5 332.5,324.5 334.5,324.5C 334.5,322.167 334.5,319.833 334.5,317.5C 335.833,317.5 337.167,317.5 338.5,317.5C 338.5,323.5 338.5,329.5 338.5,335.5C 337.167,335.5 335.833,335.5 334.5,335.5C 334.5,332.833 334.5,330.167 334.5,327.5C 332.5,327.5 330.5,327.5 328.5,327.5C 328.5,330.167 328.5,332.833 328.5,335.5C 327.167,335.5 325.833,335.5 324.5,335.5C 324.5,329.5 324.5,323.5 324.5,317.5 Z"/></g>
<g><path style="opacity:1" fill="#1d151d" d="M 1048.5,320.5 C 1057.31,320.465 1059.64,324.298 1055.5,332C 1047.3,335.14 1043.8,332.306 1045,323.5C 1046.15,322.364 1047.31,321.364 1048.5,320.5 Z"/></g>
<g><path style="opacity:1" fill="#18090f" d="M 1060.5,320.5 C 1062.86,321.529 1065.2,321.529 1067.5,320.5C 1069.03,320.529 1070.2,321.196 1071,322.5C 1071.5,326.152 1071.67,329.818 1071.5,333.5C 1070.5,333.5 1069.5,333.5 1068.5,333.5C 1068.5,330.167 1068.5,326.833 1068.5,323.5C 1066.86,323.286 1065.36,323.62 1064,324.5C 1063.5,327.482 1063.34,330.482 1063.5,333.5C 1062.5,333.5 1061.5,333.5 1060.5,333.5C 1060.5,329.167 1060.5,324.833 1060.5,320.5 Z"/></g>
<g><path style="opacity:1" fill="#1c1213" d="M 1077.5,320.5 C 1083.71,319.749 1086.71,322.415 1086.5,328.5C 1083.75,328.187 1081.09,328.52 1078.5,329.5C 1080.48,330.706 1082.48,330.706 1084.5,329.5C 1085.74,331.007 1085.41,332.174 1083.5,333C 1076.17,333.997 1073.33,330.83 1075,323.5C 1076.04,322.627 1076.88,321.627 1077.5,320.5 Z"/></g>
<g><path style="opacity:1" fill="#1c1213" d="M 344.5,322.5 C 350.709,321.749 353.709,324.415 353.5,330.5C 350.753,330.187 348.086,330.52 345.5,331.5C 347.484,332.706 349.484,332.706 351.5,331.5C 352.739,333.007 352.405,334.174 350.5,335C 343.167,335.997 340.334,332.83 342,325.5C 343.045,324.627 343.878,323.627 344.5,322.5 Z"/></g>
<g><path style="opacity:1" fill="#1a0f11" d="M 358.5,322.5 C 361.365,322.055 363.865,322.722 366,324.5C 366.499,328.152 366.665,331.818 366.5,335.5C 364.29,334.417 362.123,334.417 360,335.5C 355.817,334.914 354.65,332.747 356.5,329C 358.804,328.105 361.138,327.271 363.5,326.5C 361.516,325.294 359.516,325.294 357.5,326.5C 357.167,326 356.833,325.5 356.5,325C 357.056,323.989 357.722,323.156 358.5,322.5 Z"/></g>
<g><path style="opacity:1" fill="#f5e7d7" d="M 1049.5,323.5 C 1054.33,323.385 1055.66,325.552 1053.5,330C 1048.57,330.427 1047.24,328.26 1049.5,323.5 Z"/></g>
<g><path style="opacity:1" fill="#d2cdc6" d="M 1078.5,323.5 C 1080.66,323.116 1082.33,323.783 1083.5,325.5C 1081.5,326.833 1079.5,326.833 1077.5,325.5C 1077.86,324.817 1078.2,324.15 1078.5,323.5 Z"/></g>
<g><path style="opacity:1" fill="#d2cdc6" d="M 345.5,325.5 C 347.665,325.116 349.332,325.783 350.5,327.5C 348.5,328.833 346.5,328.833 344.5,327.5C 344.863,326.817 345.196,326.15 345.5,325.5 Z"/></g>
<g><path style="opacity:1" fill="#f5f0e1" d="M 374.5,325.5 C 378.473,326.075 379.473,328.242 377.5,332C 376.207,332.49 374.873,332.657 373.5,332.5C 373.298,330.05 373.631,327.717 374.5,325.5 Z"/></g>
<g><path style="opacity:1" fill="#dfddd3" d="M 359.5,329.5 C 360.978,329.238 362.311,329.571 363.5,330.5C 362.68,332.111 361.346,332.778 359.5,332.5C 359.5,331.5 359.5,330.5 359.5,329.5 Z"/></g>
<g><path style="opacity:1" fill="#b4e61c" d="M 174.5,348.5 C 203.5,348.5 232.5,348.5 261.5,348.5C 261.5,365.833 261.5,383.167 261.5,400.5C 232.5,400.5 203.5,400.5 174.5,400.5C 174.5,383.167 174.5,365.833 174.5,348.5 Z"/></g>
<g><path style="opacity:1" fill="#b4e61c" d="M 174.5,403.5 C 203.5,403.5 232.5,403.5 261.5,403.5C 261.5,420.833 261.5,438.167 261.5,455.5C 232.5,455.5 203.5,455.5 174.5,455.5C 174.5,438.167 174.5,420.833 174.5,403.5 Z"/></g>
<g><path style="opacity:1" fill="#1c1114" d="M 183.5,485.5 C 185.792,485.244 187.959,485.577 190,486.5C 190.667,487.5 190.667,488.5 190,489.5C 188.301,488.594 186.467,488.261 184.5,488.5C 184.351,489.552 184.517,490.552 185,491.5C 187.172,492.585 189.172,493.919 191,495.5C 192.271,499.166 191.104,501.666 187.5,503C 185.231,503.758 183.064,503.591 181,502.5C 180.251,501.365 180.417,500.365 181.5,499.5C 184.216,501.086 186.55,500.753 188.5,498.5C 185.948,496.631 183.448,494.631 181,492.5C 180.333,491.167 180.333,489.833 181,488.5C 182.045,487.627 182.878,486.627 183.5,485.5 Z"/></g>
<g><path style="opacity:1" fill="#27181d" d="M 192.5,485.5 C 197.167,485.5 201.833,485.5 206.5,485.5C 206.5,486.5 206.5,487.5 206.5,488.5C 204.833,488.5 203.167,488.5 201.5,488.5C 201.5,493.5 201.5,498.5 201.5,503.5C 200.167,503.5 198.833,503.5 197.5,503.5C 197.5,498.5 197.5,493.5 197.5,488.5C 195.833,488.5 194.167,488.5 192.5,488.5C 192.5,487.5 192.5,486.5 192.5,485.5 Z"/></g>
<g><path style="opacity:1" fill="#1e161e" d="M 212.5,485.5 C 214.288,485.215 215.955,485.548 217.5,486.5C 220.169,491.843 221.836,497.51 222.5,503.5C 221.5,503.5 220.5,503.5 219.5,503.5C 219.67,502.178 219.337,501.011 218.5,500C 215.854,499.503 213.187,499.336 210.5,499.5C 210.5,500.833 210.5,502.167 210.5,503.5C 209.5,503.5 208.5,503.5 207.5,503.5C 208.664,497.342 210.33,491.342 212.5,485.5 Z"/></g>
<g><path style="opacity:1" fill="#211217" d="M 229.5,485.5 C 232.272,485.22 234.772,485.887 237,487.5C 237.789,490.287 237.289,490.787 235.5,489C 230.671,487.662 228.338,489.496 228.5,494.5C 228.569,500.192 231.236,501.859 236.5,499.5C 237.739,501.007 237.405,502.174 235.5,503C 231.27,504.246 227.936,503.08 225.5,499.5C 224.345,496.554 224.179,493.554 225,490.5C 226.634,488.938 228.134,487.271 229.5,485.5 Z"/></g>
<g><path style="opacity:1" fill="#1b080f" d="M 240.5,485.5 C 241.5,485.5 242.5,485.5 243.5,485.5C 243.336,488.187 243.503,490.854 244,493.5C 245.955,491.089 247.789,488.589 249.5,486C 250.635,485.251 251.635,485.417 252.5,486.5C 251.079,489.009 249.412,491.343 247.5,493.5C 249.726,496.619 251.393,499.952 252.5,503.5C 251.448,503.649 250.448,503.483 249.5,503C 248.205,500.242 246.539,497.742 244.5,495.5C 243.52,498.086 243.187,500.753 243.5,503.5C 242.5,503.5 241.5,503.5 240.5,503.5C 240.5,497.5 240.5,491.5 240.5,485.5 Z"/></g>
<g><path style="opacity:1" fill="#e0d7c8" d="M 214.5,488.5 C 216.267,490.792 217.267,493.458 217.5,496.5C 215.833,496.5 214.167,496.5 212.5,496.5C 212.963,493.779 213.629,491.112 214.5,488.5 Z"/></g>
</svg>
